<svg xmlns="http://www.w3.org/2000/svg" viewBox="0 0 351 351"><rect width="351" height="351" rx="46" fill="#0B0B0B"/><g transform="translate(40 40) scale(0.772)"><path fill="#F8B828" d="M316,35v281H35V35h281M349.8,0H1.3C.6,0,0,.6,0,1.3v348.4c0,.7.6,1.3,1.3,1.3h348.4c.7,0,1.3-.6,1.3-1.3V1.3c0-.7-.5-1.3-1.2-1.3h0Z"/><path fill="#F8B828" d="M132.4,273.6c-27.8-8.6-42.3-27.3-42.3-54s1.1-15.6,3.9-22c4.5-10.9,11.4-19.2,20.9-25.6-10-9.7-15.3-23.4-15.3-40.4s5.3-29.2,15.6-39.5c12.5-12.8,30-19.2,52.9-19.2h92.9v205.1h-97.7c-11.7.1-22.3-1.3-30.9-4.4h0ZM220.3,238.6v-44h-57c-11.7,0-20.3,2.5-25.9,7.5-4.7,4.2-7,9.2-7,15.9s2.2,11.4,6.7,14.8c5,3.9,13.1,5.8,23.7,5.8h59.5ZM220.3,155.9v-43.7h-54.5c-9.5,0-15.8,2.2-20.3,7-1.9,2-3.1,3.9-3.9,6.1-1.1,2.5-1.4,5.8-1.4,9.5s.5,6.1,1.9,8.9c2.5,5.3,8.1,12.2,25.9,12.2h52.3Z"/></g></svg>
